<?xml version="1.0" encoding="UTF-8"?>
<svg width="158px" height="32px" viewBox="0 0 158 32" version="1.1" xmlns="http://www.w3.org/2000/svg" xmlns:xlink="http://www.w3.org/1999/xlink">
    <!-- Generator: Sketch 51.3 (57544) - http://www.bohemiancoding.com/sketch -->
    <title>deploy</title>
    <desc>Created with Sketch.</desc>
    <defs></defs>
    <g id="Page-1" stroke="none" stroke-width="1" fill="none" fill-rule="evenodd">
        <g id="deploy">
            <rect id="brand-blue" fill="#009DDC" fill-rule="nonzero" x="0" y="0" width="158" height="32" rx="4"></rect>
            <path d="M23.2569672,8.55210992 C24.8440689,8.55210992 26.2444528,9.42628397 26.9913242,10.7145405 C27.6448366,10.4384855 28.3450286,10.2544488 29.0919,10.2544488 C31.9860266,10.2544488 34.3199997,12.5549069 34.3199997,15.4074748 C34.3199997,18.2600427 31.9860266,20.5605007 29.0919,20.5605007 C28.7184643,20.5605007 28.391708,20.5144916 28.0649518,20.4684824 C27.4114393,21.6187114 26.1510938,22.4008671 24.7040305,22.4008671 C24.0971975,22.4008671 23.537044,22.2628397 23.0235699,22.0327939 C22.3700574,23.5510961 20.8296352,24.6093068 19.0091362,24.6093068 C17.1419577,24.6093068 15.5081765,23.4590778 14.9013435,21.8027481 C14.6212667,21.8487572 14.34119,21.8947664 14.0611132,21.8947664 C11.820499,21.8947664 10,20.1004091 10,17.8919694 C10,16.4196763 10.7935509,15.1314198 12.0072169,14.4412824 C11.7738196,13.8891725 11.6337812,13.2450443 11.6337812,12.600916 C11.6337812,10.0704122 13.734357,8 16.3484068,8 C17.982188,8.04600916 19.3358924,8.73614656 20.1761227,9.84036641 C20.9696736,9.05821068 22.0433012,8.55210992 23.2569672,8.55210992 Z" id="Shape-Copy-7" fill="#FFFFFF" fill-rule="nonzero"></path>
            <text id="Deploy-to-Salesforce" font-family="HelveticaNeue, Helvetica Neue" font-size="12" font-weight="normal" fill="#FFFFFF">
                <tspan x="40" y="20">Deploy to Salesforce</tspan>
            </text>
        </g>
    </g>
</svg>